<svg width="428" height="346" viewBox="0 0 428 346" fill="none" xmlns="http://www.w3.org/2000/svg">
<path fill-rule="evenodd" clip-rule="evenodd" d="M181.945 249.248C181.945 249.248 180.601 265.632 179.833 270.964C179.065 276.3 179.449 282.203 174.267 286.205C169.084 290.207 165.524 292.301 165.524 292.301C165.524 292.301 163.253 293.764 166.401 294.397C169.549 295.03 259.419 294.847 259.419 294.847C259.419 294.847 267.925 294.572 265.336 292.827C262.748 291.083 253.317 287.413 252.023 280.441C250.729 273.465 248.415 249.606 248.415 249.606L181.945 249.248Z" fill="#9FDDFF"/>
<path d="M179.68 273.25L181.96 249.248H247.857C248.257 252.488 249.416 261.826 250.857 273.25C252.656 287.531 258.418 287.891 262.38 290.532C265.547 292.645 265.22 293.971 264.659 294.373C232.292 295.052 167.197 296.005 165.756 294.373C163.956 292.333 168.157 290.412 173.918 286.812C178.527 283.932 179.68 276.57 179.68 273.25Z" fill="#9FDDFF"/>
<path fill-rule="evenodd" clip-rule="evenodd" d="M181.576 248.847H248.228L248.281 249.267C248.681 252.497 249.838 261.8 251.277 273.188C252.168 280.244 254.029 283.778 256.087 285.876C257.12 286.929 258.223 287.639 259.327 288.254C259.674 288.449 260.03 288.637 260.386 288.824C261.136 289.22 261.887 289.618 262.573 290.075C264.183 291.144 264.993 292.072 265.29 292.856C265.604 293.686 265.332 294.353 264.862 294.689L264.741 294.776L264.593 294.778C248.433 295.117 224.103 295.523 203.631 295.642C193.396 295.702 184.122 295.69 177.315 295.559C173.913 295.495 171.122 295.401 169.132 295.27C168.139 295.206 167.336 295.133 166.755 295.049C166.465 295.005 166.217 294.96 166.023 294.904C165.927 294.878 165.832 294.848 165.748 294.81C165.672 294.776 165.562 294.715 165.474 294.615C165.206 294.313 165.025 293.984 164.959 293.624C164.893 293.26 164.953 292.908 165.1 292.575C165.383 291.936 166.004 291.333 166.785 290.736C167.841 289.926 169.339 289.025 171.072 287.978C171.91 287.474 172.803 286.935 173.728 286.356C175.892 285.008 177.282 282.58 178.129 280.019C178.974 277.467 179.255 274.858 179.255 273.248V273.224L181.576 248.847ZM182.448 249.803L180.214 273.27C180.211 274.971 179.916 277.672 179.039 280.319C178.161 282.974 176.674 285.649 174.236 287.17C173.266 287.773 172.35 288.326 171.502 288.838C169.803 289.861 168.382 290.718 167.368 291.493C166.605 292.078 166.156 292.559 165.978 292.963C165.894 293.152 165.876 293.308 165.903 293.453C165.928 293.592 166 293.755 166.159 293.945C166.183 293.956 166.222 293.968 166.279 293.984C166.417 294.022 166.62 294.062 166.893 294.1C167.437 294.181 168.21 294.253 169.195 294.315C171.161 294.446 173.936 294.538 177.334 294.603C184.128 294.731 193.392 294.743 203.625 294.685C224.012 294.567 248.23 294.163 264.388 293.825C264.462 293.718 264.518 293.527 264.392 293.194C264.203 292.691 263.594 291.905 262.04 290.868C261.397 290.44 260.718 290.083 259.992 289.699C259.626 289.508 259.25 289.307 258.858 289.09C257.717 288.453 256.527 287.689 255.402 286.545C253.147 284.248 251.231 280.484 250.327 273.306C248.946 262.379 247.822 253.367 247.382 249.803H182.448Z" fill="black"/>
<path fill-rule="evenodd" clip-rule="evenodd" d="M188.376 254.072C188.376 254.072 187.033 270.456 186.265 275.789C185.497 281.125 185.881 287.028 180.698 291.029C175.516 295.031 171.956 297.125 171.956 297.125C171.956 297.125 169.684 298.588 172.832 299.221C175.98 299.854 265.851 299.672 265.851 299.672C265.851 299.672 274.356 299.396 271.768 297.652C269.179 295.907 259.749 292.237 258.455 285.265C257.16 278.291 254.847 254.43 254.847 254.43L188.376 254.072Z" fill="#9FDDFF"/>
<path d="M186.111 278.074L188.392 254.072H254.288C254.688 257.312 255.848 266.65 257.289 278.074C259.088 292.356 264.85 292.715 268.811 295.356C271.979 297.469 271.651 298.795 271.091 299.197C238.724 299.877 173.628 300.829 172.188 299.197C170.387 297.157 174.588 295.236 180.35 291.636C184.959 288.756 186.111 281.394 186.111 278.074Z" fill="#9FDDFF"/>
<path fill-rule="evenodd" clip-rule="evenodd" d="M188.007 253.67H254.66L254.712 254.09C255.112 257.32 256.27 266.623 257.709 278.011C258.599 285.068 260.46 288.601 262.519 290.699C263.552 291.752 264.655 292.462 265.758 293.077C266.106 293.272 266.462 293.461 266.818 293.648C267.567 294.044 268.319 294.442 269.004 294.898C270.614 295.967 271.424 296.896 271.722 297.679C272.035 298.509 271.764 299.177 271.294 299.512L271.173 299.599L271.024 299.601C254.865 299.94 230.534 300.346 210.063 300.465C199.828 300.525 190.554 300.513 183.747 300.383C180.345 300.318 177.553 300.224 175.564 300.093C174.571 300.029 173.768 299.957 173.186 299.872C172.896 299.828 172.649 299.784 172.455 299.727C172.358 299.701 172.264 299.671 172.179 299.633C172.104 299.599 171.994 299.538 171.905 299.438C171.638 299.137 171.456 298.807 171.391 298.447C171.325 298.083 171.385 297.732 171.532 297.398C171.815 296.759 172.436 296.156 173.216 295.559C174.272 294.749 175.77 293.849 177.504 292.801C178.342 292.297 179.235 291.758 180.16 291.18C182.324 289.831 183.713 287.403 184.561 284.843C185.405 282.29 185.687 279.681 185.687 278.071V278.049L188.007 253.67ZM188.879 254.627L186.646 278.096C186.643 279.794 186.348 282.495 185.471 285.142C184.593 287.797 183.106 290.472 180.668 291.994C179.698 292.597 178.781 293.149 177.934 293.662C176.235 294.685 174.813 295.541 173.8 296.317C173.037 296.902 172.587 297.382 172.409 297.786C172.326 297.975 172.308 298.132 172.334 298.276C172.36 298.415 172.432 298.578 172.591 298.769C172.615 298.779 172.654 298.791 172.711 298.807C172.849 298.845 173.052 298.885 173.325 298.923C173.869 299.004 174.642 299.076 175.626 299.139C177.593 299.269 180.367 299.362 183.765 299.426C190.56 299.555 199.824 299.567 210.057 299.508C230.444 299.39 254.662 298.986 270.819 298.648C270.894 298.542 270.95 298.351 270.823 298.017C270.634 297.515 270.025 296.729 268.472 295.692C267.829 295.264 267.149 294.906 266.424 294.522C266.058 294.331 265.682 294.13 265.29 293.913C264.149 293.276 262.959 292.512 261.833 291.368C259.578 289.071 257.663 285.307 256.758 278.13C255.378 267.202 254.254 258.19 253.814 254.627H188.879Z" fill="black"/>
<path fill-rule="evenodd" clip-rule="evenodd" d="M255.375 286.833H197.492V285.828H255.375V286.833Z" fill="black"/>
<path fill-rule="evenodd" clip-rule="evenodd" d="M356.905 253.872H69.0309C63.7209 253.872 59.4163 249.564 59.4163 244.25V44.6205C59.4163 39.3071 63.7209 35 69.0309 35H356.905C362.213 35 366.52 39.3071 366.52 44.6205V244.25C366.52 249.564 362.213 253.872 356.905 253.872Z" fill="#9FDDFF"/>
<path fill-rule="evenodd" clip-rule="evenodd" d="M69.0309 252.911H356.905C361.684 252.911 365.559 249.034 365.559 244.25V44.6205C365.559 39.8377 361.684 35.9607 356.905 35.9607H69.0309C64.2511 35.9607 60.3764 39.8377 60.3764 44.6205V244.25C60.3764 249.034 64.2511 252.911 69.0309 252.911ZM69.0309 253.872H356.905C362.213 253.872 366.52 249.564 366.52 244.25V44.6205C366.52 39.3071 362.213 35 356.905 35H69.0309C63.7209 35 59.4163 39.3071 59.4163 44.6205V244.25C59.4163 249.564 63.7209 253.872 69.0309 253.872Z" fill="black"/>
<path fill-rule="evenodd" clip-rule="evenodd" d="M361.728 257.489H73.8545C68.5445 257.489 64.2399 253.182 64.2399 247.868V48.2377C64.2399 42.9243 68.5445 38.6172 73.8545 38.6172H361.728C367.036 38.6172 371.343 42.9243 371.343 48.2377V247.868C371.343 253.182 367.036 257.489 361.728 257.489Z" fill="#9FDDFF"/>
<path fill-rule="evenodd" clip-rule="evenodd" d="M73.8545 256.528H361.728C366.508 256.528 370.383 252.651 370.383 247.868V48.2377C370.383 43.4549 366.508 39.5779 361.728 39.5779H73.8545C69.0747 39.5779 65.2 43.4549 65.2 48.2377V247.868C65.2 252.651 69.0747 256.528 73.8545 256.528ZM73.8545 257.489H361.728C367.036 257.489 371.343 253.182 371.343 247.868V48.2377C371.343 42.9243 367.036 38.6172 361.728 38.6172H73.8545C68.5445 38.6172 64.2399 42.9243 64.2399 48.2377V247.868C64.2399 253.182 68.5445 257.489 73.8545 257.489Z" fill="black"/>
<path fill-rule="evenodd" clip-rule="evenodd" d="M74.2891 248.043H363.505V50.8774H74.2891V248.043Z" fill="#204EB2"/>
<path fill-rule="evenodd" clip-rule="evenodd" d="M363.505 248.043H74.2891V50.8774H363.505V248.043ZM362.544 51.8381H75.25V247.082H362.544V51.8381Z" fill="black"/>
<path fill-rule="evenodd" clip-rule="evenodd" d="M74.2891 67.7601H363.505V50.8774H74.2891V67.7601Z" fill="white"/>
<path fill-rule="evenodd" clip-rule="evenodd" d="M363.505 67.7601H74.2891V50.8774H363.505V67.7601ZM362.544 51.8422H75.25V66.7954H362.544V51.8422Z" fill="black"/>
<path fill-rule="evenodd" clip-rule="evenodd" d="M74.2891 74.7953H363.505V66.354H74.2891V74.7953Z" fill="white"/>
<path fill-rule="evenodd" clip-rule="evenodd" d="M363.505 74.7953H74.2891V66.354H363.505V74.7953ZM362.544 67.3187H75.25V73.8306H362.544V67.3187Z" fill="black"/>
<path fill-rule="evenodd" clip-rule="evenodd" d="M225.831 231.763C225.831 236.092 222.547 239.602 218.495 239.602C214.444 239.602 211.159 236.092 211.159 231.763C211.159 227.434 214.444 223.925 218.495 223.925C222.547 223.925 225.831 227.434 225.831 231.763Z" fill="white"/>
<path fill-rule="evenodd" clip-rule="evenodd" d="M218.495 238.635C221.965 238.635 224.871 235.612 224.871 231.763C224.871 227.914 221.965 224.892 218.495 224.892C215.025 224.892 212.119 227.914 212.119 231.763C212.119 235.612 215.025 238.635 218.495 238.635ZM218.495 239.602C222.547 239.602 225.831 236.092 225.831 231.763C225.831 227.434 222.547 223.925 218.495 223.925C214.444 223.925 211.159 227.434 211.159 231.763C211.159 236.092 214.444 239.602 218.495 239.602Z" fill="black"/>
<path fill-rule="evenodd" clip-rule="evenodd" d="M97.0004 210.057H170.159V99.1143H97.0004V210.057Z" fill="white"/>
<path fill-rule="evenodd" clip-rule="evenodd" d="M96.3972 98.7119H170.761V210.459H96.3972V98.7119ZM97.3599 99.6712V209.5H169.799V99.6712H97.3599Z" fill="black"/>
<path fill-rule="evenodd" clip-rule="evenodd" d="M103.231 135.291H130.967V109.163H103.231V135.291Z" fill="#FFB1EA"/>
<path fill-rule="evenodd" clip-rule="evenodd" d="M102.628 108.56H131.368V135.693H102.628V108.56ZM103.586 109.521V134.732H130.41V109.521H103.586Z" fill="black"/>
<path fill-rule="evenodd" clip-rule="evenodd" d="M103.231 165.84H130.967V139.712H103.231V165.84Z" fill="#FFB1EA"/>
<path fill-rule="evenodd" clip-rule="evenodd" d="M102.628 139.31H131.368V166.443H102.628V139.31ZM103.586 140.271V165.482H130.41V140.271H103.586Z" fill="black"/>
<path fill-rule="evenodd" clip-rule="evenodd" d="M135.589 135.291H163.325V109.163H135.589V135.291Z" fill="#FFB1EA"/>
<path fill-rule="evenodd" clip-rule="evenodd" d="M135.187 108.56H163.928V135.693H135.187V108.56ZM136.145 109.521V134.732H162.97V109.521H136.145Z" fill="black"/>
<path fill-rule="evenodd" clip-rule="evenodd" d="M135.589 165.84H163.325V139.712H135.589V165.84Z" fill="#FFB1EA"/>
<path fill-rule="evenodd" clip-rule="evenodd" d="M135.187 139.31H163.928V166.443H135.187V139.31ZM136.145 140.271V165.482H162.97V140.271H136.145Z" fill="black"/>
<path fill-rule="evenodd" clip-rule="evenodd" d="M181.413 210.258H254.772V99.3149H181.413V210.258Z" fill="white"/>
<path fill-rule="evenodd" clip-rule="evenodd" d="M254.772 210.258H181.413V99.3149H254.772V210.258ZM253.814 100.275H182.372V209.298H253.814V100.275Z" fill="black"/>
<path fill-rule="evenodd" clip-rule="evenodd" d="M189.654 135.291H217.389V109.163H189.654V135.291Z" fill="#FFF59B"/>
<path fill-rule="evenodd" clip-rule="evenodd" d="M217.389 135.291H189.654V109.163H217.389V135.291ZM216.433 110.122H190.61V134.332H216.433V110.122Z" fill="black"/>
<path fill-rule="evenodd" clip-rule="evenodd" d="M220.203 135.291H247.939V109.163H220.203V135.291Z" fill="#FFF59B"/>
<path fill-rule="evenodd" clip-rule="evenodd" d="M247.939 135.291H220.203V109.163H247.939V135.291ZM246.982 110.122H221.16V134.332H246.982V110.122Z" fill="black"/>
<path fill-rule="evenodd" clip-rule="evenodd" d="M266.028 210.057H339.186V99.1143H266.028V210.057Z" fill="white"/>
<path fill-rule="evenodd" clip-rule="evenodd" d="M339.186 210.057H266.028V99.1143H339.186V210.057ZM338.227 100.075H266.986V209.097H338.227V100.075Z" fill="black"/>
<path fill-rule="evenodd" clip-rule="evenodd" d="M272.861 135.291H300.597V109.163H272.861V135.291Z" fill="#ABF0CF"/>
<path fill-rule="evenodd" clip-rule="evenodd" d="M300.597 135.291H272.861V109.163H300.597V135.291ZM299.64 110.122H273.818V134.332H299.64V110.122Z" fill="black"/>
<path fill-rule="evenodd" clip-rule="evenodd" d="M272.861 165.84H300.597V139.712H272.861V165.84Z" fill="#ABF0CF"/>
<path fill-rule="evenodd" clip-rule="evenodd" d="M300.597 165.84H272.861V139.712H300.597V165.84ZM299.64 140.671H273.818V164.881H299.64V140.671Z" fill="black"/>
<path fill-rule="evenodd" clip-rule="evenodd" d="M272.861 196.189H300.597V170.062H272.861V196.189Z" fill="#ABF0CF"/>
<path fill-rule="evenodd" clip-rule="evenodd" d="M300.597 196.189H272.861V170.062H300.597V196.189ZM299.64 171.02H273.818V195.231H299.64V171.02Z" fill="black"/>
<path fill-rule="evenodd" clip-rule="evenodd" d="M303.813 135.291H331.548V109.163H303.813V135.291Z" fill="#ABF0CF"/>
<path fill-rule="evenodd" clip-rule="evenodd" d="M331.548 135.291H303.813V109.163H331.548V135.291ZM330.592 110.122H304.769V134.332H330.592V110.122Z" fill="black"/>
<path fill-rule="evenodd" clip-rule="evenodd" d="M303.813 165.84H331.548V139.712H303.813V165.84Z" fill="#ABF0CF"/>
<path fill-rule="evenodd" clip-rule="evenodd" d="M331.548 165.84H303.813V139.712H331.548V165.84ZM330.592 140.671H304.769V164.881H330.592V140.671Z" fill="black"/>
<path fill-rule="evenodd" clip-rule="evenodd" d="M96.3972 290.049H161.516V224.93H96.3972V290.049Z" fill="#F9C818"/>
<path fill-rule="evenodd" clip-rule="evenodd" d="M161.516 290.049H96.3972V224.93H161.516V290.049ZM160.555 225.891H97.3587V289.088H160.555V225.891Z" fill="black"/>
<path fill-rule="evenodd" clip-rule="evenodd" d="M96.4017 225.332C96.4017 225.332 95.8974 272.479 105.623 282.612H165.335C165.335 282.612 160.552 283.503 161.613 225.332H96.4017Z" fill="#F9DC4A"/>
<path fill-rule="evenodd" clip-rule="evenodd" d="M164.51 281.652C163.203 278.876 160.871 268.095 161.596 226.291C161.601 225.973 161.607 225.654 161.613 225.332H96.4017C96.4017 225.332 95.8974 272.479 105.623 282.61H165.307C165.325 282.614 165.335 282.61 165.335 282.61H165.307C165.217 282.604 164.912 282.506 164.51 281.652ZM163.462 281.652C163.028 280.578 162.56 278.824 162.123 275.93C161.06 268.877 160.14 254.734 160.633 226.291H97.3606C97.3602 226.588 97.3604 226.95 97.362 227.374C97.3674 228.678 97.3857 230.554 97.4375 232.835C97.542 237.401 97.7824 243.591 98.3249 250.093C98.8681 256.599 99.7123 263.392 101.019 269.177C101.672 272.069 102.437 274.688 103.328 276.882C104.148 278.904 105.057 280.518 106.048 281.652H163.462Z" fill="black"/>
<path fill-rule="evenodd" clip-rule="evenodd" d="M100.015 60.1245C100.015 61.5676 98.8901 62.7373 97.5025 62.7373C96.1151 62.7373 94.9902 61.5676 94.9902 60.1245C94.9902 58.6814 96.1151 57.5117 97.5025 57.5117C98.8901 57.5117 100.015 58.6814 100.015 60.1245Z" fill="#E93737"/>
<path fill-rule="evenodd" clip-rule="evenodd" d="M97.5025 61.7748C98.2954 61.7748 99.0338 61.0892 99.0338 60.1245C99.0338 59.1596 98.2954 58.4742 97.5025 58.4742C96.7099 58.4742 95.9712 59.1596 95.9712 60.1245C95.9712 61.0892 96.7099 61.7748 97.5025 61.7748ZM97.5025 62.7373C98.8901 62.7373 100.015 61.5676 100.015 60.1245C100.015 58.6814 98.8901 57.5117 97.5025 57.5117C96.1151 57.5117 94.9902 58.6814 94.9902 60.1245C94.9902 61.5676 96.1151 62.7373 97.5025 62.7373Z" fill="black"/>
<path fill-rule="evenodd" clip-rule="evenodd" d="M110.064 60.123C110.064 61.5661 108.939 62.7358 107.552 62.7358C106.164 62.7358 105.04 61.5661 105.04 60.123C105.04 58.68 106.164 57.5103 107.552 57.5103C108.939 57.5103 110.064 58.68 110.064 60.123Z" fill="#56ACF6"/>
<path fill-rule="evenodd" clip-rule="evenodd" d="M107.552 61.7731C108.345 61.7731 109.083 61.0878 109.083 60.123C109.083 59.1581 108.345 58.473 107.552 58.473C106.759 58.473 106.021 59.1581 106.021 60.123C106.021 61.0878 106.759 61.7731 107.552 61.7731ZM107.552 62.7358C108.939 62.7358 110.064 61.5661 110.064 60.123C110.064 58.68 108.939 57.5103 107.552 57.5103C106.164 57.5103 105.04 58.68 105.04 60.123C105.04 61.5661 106.164 62.7358 107.552 62.7358Z" fill="black"/>
<path fill-rule="evenodd" clip-rule="evenodd" d="M120.515 60.1232C120.515 61.5661 119.39 62.7358 118.003 62.7358C116.615 62.7358 115.491 61.5661 115.491 60.1232C115.491 58.6802 116.615 57.5103 118.003 57.5103C119.39 57.5103 120.515 58.6802 120.515 60.1232Z" fill="#08AEB5"/>
<path fill-rule="evenodd" clip-rule="evenodd" d="M118.003 61.7731C118.796 61.7731 119.534 61.088 119.534 60.1232C119.534 59.1583 118.796 58.473 118.003 58.473C117.21 58.473 116.472 59.1583 116.472 60.1232C116.472 61.088 117.21 61.7731 118.003 61.7731ZM118.003 62.7358C119.39 62.7358 120.515 61.5661 120.515 60.1232C120.515 58.6802 119.39 57.5103 118.003 57.5103C116.615 57.5103 115.491 58.6802 115.491 60.1232C115.491 61.5661 116.615 62.7358 118.003 62.7358Z" fill="black"/>
</svg>
