<svg width="428" height="346" viewBox="0 0 428 346" fill="none" xmlns="http://www.w3.org/2000/svg">
<path fill-rule="evenodd" clip-rule="evenodd" d="M272.295 286.224L296.423 248.467C296.423 248.467 315.096 216.909 307.493 210.897C299.89 204.886 270.13 240.027 270.13 240.027L265.687 254.371L253.16 273.566C253.16 273.566 256.753 279.331 262.15 282.268C267.547 285.204 272.295 286.224 272.295 286.224Z" fill="#ABF0CF"/>
<path fill-rule="evenodd" clip-rule="evenodd" d="M272.582 286.969L296.933 248.855C309.554 227.532 313.296 214.828 307.867 210.535C302.377 206.197 289.817 215.989 269.701 239.744L269.623 239.835L265.171 254.215L252.486 273.653L252.681 273.966C255.127 277.893 258.197 280.862 261.886 282.87C265.53 284.85 268.965 286.189 272.188 286.885L272.582 286.969ZM271.171 239.805C290.2 217.432 302.296 207.996 307.006 211.339L307.145 211.445C311.855 215.167 308.218 227.511 295.948 248.25L272.04 285.662L271.924 285.636C269.049 284.96 265.982 283.749 262.727 282.007L262.44 281.85C259.063 280.015 256.228 277.325 253.933 273.775L253.863 273.664L266.229 254.713L270.663 240.404L271.171 239.805Z" fill="black"/>
<path fill-rule="evenodd" clip-rule="evenodd" d="M247.15 220.037C247.15 220.037 257.057 236.521 266.768 257.099C268.808 261.427 268.808 260.215 270.463 257.429C276.513 247.261 295.319 218.122 295.319 218.122C295.319 218.122 294.47 186.46 286.429 176.501C278.391 166.542 265.718 174.391 265.718 174.391L247.15 220.037Z" fill="#0089FF"/>
<path fill-rule="evenodd" clip-rule="evenodd" d="M265.2 173.937L265.359 173.838C274.043 168.459 281.275 169.195 286.829 176.076C292.29 182.844 295.275 196.819 295.846 218.046L295.849 218.225L292.826 222.916C282.397 239.115 275.258 250.421 271.414 256.824L270.91 257.667C270.75 257.937 270.403 258.554 270.185 258.937C270.124 259.047 270.072 259.14 270.04 259.195L269.953 259.343C269.658 259.844 269.44 260.122 269.162 260.299C268.591 260.662 268.037 260.427 267.556 259.792C267.229 259.366 266.855 258.679 266.31 257.54L265.86 256.592C259.504 243.166 253.083 231.061 246.601 220.275L246.451 220.027L265.2 173.937ZM294.67 217.45C294.07 197.022 291.188 183.525 286.084 177.002L285.927 176.805C280.762 170.407 274.185 169.737 265.971 174.824L266.13 174.725L247.744 219.926L248.267 220.802C254.541 231.337 260.756 243.102 266.91 256.096L267.35 257.03C267.863 258.105 268.214 258.743 268.478 259.09L268.51 259.131C268.542 259.169 268.568 259.201 268.594 259.227L268.614 259.25L268.631 259.232C268.695 259.157 268.779 259.038 268.884 258.87L268.968 258.734L269.008 258.667C269.023 258.641 269.081 258.537 269.162 258.392C269.356 258.047 269.678 257.476 269.863 257.16L270.42 256.23C274.226 249.885 281.252 238.756 291.496 222.84L294.681 217.898L294.67 217.45Z" fill="black"/>
<path fill-rule="evenodd" clip-rule="evenodd" d="M105.611 164.617L127.71 128.608C127.71 128.608 146.799 99.7737 155.064 103.728C163.329 107.682 145.791 147.378 145.791 147.378L135.437 157.061L124.31 175.589C124.31 175.589 117.919 174.929 113.184 171.571C108.45 168.214 105.611 164.617 105.611 164.617Z" fill="#ABF0CF"/>
<path fill-rule="evenodd" clip-rule="evenodd" d="M105 164.802L127.321 128.431C140.229 108.933 149.485 100.514 155.409 103.348C161.401 106.215 158.282 120.898 146.416 147.756L146.368 147.864L135.986 157.572L124.712 176.346L124.345 176.308C119.987 175.858 116.184 174.485 112.943 172.187C109.744 169.918 107.179 167.563 105.251 165.119L105 164.802ZM145.698 146.509C156.821 121.188 159.825 107.063 155.057 104.47L154.908 104.394C149.812 101.956 140.832 110.123 128.298 129.055L106.413 164.715L106.476 164.792C108.241 166.94 110.534 169.029 113.356 171.057L113.614 171.241C116.566 173.335 120.018 174.622 123.977 175.101L124.099 175.114L135.076 156.836L145.403 147.179L145.698 146.509Z" fill="black"/>
<path fill-rule="evenodd" clip-rule="evenodd" d="M130.218 157.061L151.901 119.895C151.901 119.895 169.34 103.427 190.813 110.399C212.285 117.371 166.723 163.44 166.723 163.44C166.723 163.44 155.958 159.502 147.498 159.502C139.039 159.502 128.97 159.502 128.97 159.502L130.218 157.061Z" fill="#0089FF"/>
<path fill-rule="evenodd" clip-rule="evenodd" d="M129.811 156.912L151.536 119.675L151.95 119.286C163.638 108.432 176.71 105.323 191.086 109.991C198.613 112.435 200.293 118.402 196.148 127.528C192.098 136.446 182.461 148.59 167.229 163.991L166.967 164.256L166.279 164.005C159.299 161.484 153.069 160.225 147.592 160.225H128.116L129.796 156.94L129.811 156.912ZM195.092 127.049C198.978 118.495 197.515 113.297 190.727 111.094C176.643 106.52 163.912 109.613 152.453 120.404V120.403L152.393 120.459C152.413 120.441 152.433 120.422 152.453 120.404L130.823 157.478L130.011 159.066L147.592 159.066C153.124 159.066 159.369 160.309 166.329 162.791L166.665 162.911L167.297 162.27C181.775 147.54 191.002 135.878 194.971 127.313L195.092 127.049Z" fill="black"/>
<path d="M132.972 275.511C145.538 275.511 155.725 265.324 155.725 252.757C155.725 240.19 145.538 230.003 132.972 230.003C120.405 230.003 110.218 240.19 110.218 252.757C110.218 265.324 120.405 275.511 132.972 275.511Z" fill="white"/>
<path fill-rule="evenodd" clip-rule="evenodd" d="M155.819 252.899C155.819 240.334 145.632 230.146 133.065 230.146C120.499 230.146 110.311 240.334 110.311 252.899C110.311 265.468 120.499 275.653 133.065 275.653C145.632 275.653 155.819 265.468 155.819 252.899ZM111.471 252.899C111.471 240.974 121.139 231.306 133.065 231.306C144.992 231.306 154.66 240.974 154.66 252.899C154.66 264.827 144.992 274.494 133.065 274.494C121.139 274.494 111.471 264.827 111.471 252.899Z" fill="black"/>
<path d="M190.074 296.961C198.478 296.961 205.291 290.147 205.291 281.743C205.291 273.339 198.478 266.525 190.074 266.525C181.669 266.525 174.856 273.339 174.856 281.743C174.856 290.147 181.669 296.961 190.074 296.961Z" fill="white"/>
<path fill-rule="evenodd" clip-rule="evenodd" d="M205.385 281.885C205.385 273.482 198.572 266.667 190.168 266.667C181.763 266.667 174.95 273.482 174.95 281.885C174.95 290.291 181.763 297.103 190.168 297.103C198.572 297.103 205.385 290.291 205.385 281.885ZM176.109 281.885C176.109 274.123 182.403 267.827 190.168 267.827C197.932 267.827 204.226 274.123 204.226 281.885C204.226 289.65 197.932 295.943 190.168 295.943C182.403 295.943 176.109 289.65 176.109 281.885Z" fill="black"/>
<path d="M133.116 297.83C136.958 297.83 140.073 294.716 140.073 290.874C140.073 287.032 136.958 283.917 133.116 283.917C129.274 283.917 126.16 287.032 126.16 290.874C126.16 294.716 129.274 297.83 133.116 297.83Z" fill="white"/>
<path fill-rule="evenodd" clip-rule="evenodd" d="M140.167 291.016C140.167 287.175 137.052 284.059 133.21 284.059C129.368 284.059 126.254 287.175 126.254 291.016C126.254 294.859 129.368 297.972 133.21 297.972C137.052 297.972 140.167 294.859 140.167 291.016ZM127.413 291.016C127.413 287.816 130.009 285.219 133.21 285.219C136.412 285.219 139.007 287.816 139.007 291.016C139.007 294.219 136.412 296.813 133.21 296.813C130.009 296.813 127.413 294.219 127.413 291.016Z" fill="black"/>
<path d="M158.334 315.512C164.417 315.512 169.349 310.58 169.349 304.497C169.349 298.414 164.417 293.482 158.334 293.482C152.251 293.482 147.32 298.414 147.32 304.497C147.32 310.58 152.251 315.512 158.334 315.512Z" fill="white"/>
<path fill-rule="evenodd" clip-rule="evenodd" d="M169.443 304.639C169.443 298.558 164.511 293.625 158.428 293.625C152.345 293.625 147.413 298.558 147.413 304.639C147.413 310.723 152.345 315.654 158.428 315.654C164.511 315.654 169.443 310.723 169.443 304.639ZM148.573 304.639C148.573 299.199 152.985 294.784 158.428 294.784C163.871 294.784 168.283 299.199 168.283 304.639C168.283 310.083 163.871 314.494 158.428 314.494C152.985 314.494 148.573 310.083 148.573 304.639Z" fill="black"/>
<path d="M165.436 288.265C184.886 288.265 200.654 272.497 200.654 253.047C200.654 233.597 184.886 217.829 165.436 217.829C145.985 217.829 130.218 233.597 130.218 253.047C130.218 272.497 145.985 288.265 165.436 288.265Z" fill="white"/>
<path fill-rule="evenodd" clip-rule="evenodd" d="M200.748 253.189C200.748 233.74 184.98 217.972 165.53 217.972C146.08 217.972 130.312 233.74 130.312 253.189C130.312 272.641 146.08 288.407 165.53 288.407C184.98 288.407 200.748 272.641 200.748 253.189ZM131.471 253.189C131.471 234.38 146.72 219.132 165.53 219.132C184.34 219.132 199.588 234.38 199.588 253.189C199.588 272.001 184.34 287.247 165.53 287.247C146.72 287.247 131.471 272.001 131.471 253.189Z" fill="black"/>
<path fill-rule="evenodd" clip-rule="evenodd" d="M150.504 199.278L141.306 214.46C141.306 214.46 139.465 216.717 142.812 221.367C146.159 226.018 160.864 237.864 173.439 245.606C186.014 253.348 198.779 259.305 204.695 260.174C210.611 261.044 212.297 259.763 214.611 256.282C216.925 252.8 221.523 245.423 221.523 245.423L150.504 199.278Z" fill="#204EB2"/>
<path fill-rule="evenodd" clip-rule="evenodd" d="M150.413 198.609L222.411 245.392L221.677 246.569C219.109 250.682 217.101 253.838 215.651 256.047L215.188 256.746C212.499 260.792 210.396 261.728 204.705 260.891C198.696 260.007 185.882 254.033 173.229 246.244L172.861 246.015C160.685 238.465 145.923 226.694 142.436 221.849C140.084 218.581 139.518 216.033 140.925 214.269L140.923 214.271L150.413 198.609ZM220.825 245.743L150.784 200.233L141.875 214.938L141.849 214.969C140.835 216.213 141.281 218.26 143.377 221.172C146.787 225.91 161.713 237.791 173.837 245.256C186.364 252.969 199.064 258.891 204.874 259.746C210.12 260.517 211.782 259.775 214.223 256.105L214.374 255.876C215.63 253.977 217.364 251.267 219.573 247.743L220.825 245.743Z" fill="black"/>
<path fill-rule="evenodd" clip-rule="evenodd" d="M150.285 166.542L137.249 188.044C137.249 188.044 134.641 191.242 139.385 197.829C144.128 204.415 164.966 221.193 182.786 232.158C200.606 243.122 218.695 251.56 227.079 252.792C235.463 254.027 237.852 252.209 241.131 247.279C244.411 242.348 250.927 231.9 250.927 231.9L150.285 166.542Z" fill="#ABF0CF"/>
<path fill-rule="evenodd" clip-rule="evenodd" d="M149.971 165.944L250.799 232.001L250.501 232.485C246.451 239.036 243.345 243.963 241.182 247.27L240.661 248.062C236.985 253.575 234.098 254.827 226.267 253.665C217.859 252.418 199.866 243.957 182.102 232.931C164.909 222.258 143.802 205.317 138.874 198.413C135.617 193.851 134.847 190.341 136.749 187.948L149.971 165.944ZM249.35 232.105L150.358 167.394L137.697 188.416L137.672 188.448C136.189 190.277 136.781 193.194 139.623 197.255L139.814 197.525C144.636 204.266 165.666 221.107 182.758 231.694C200.415 242.632 218.316 251.027 226.535 252.244C230.578 252.844 233.163 252.711 235.096 251.844C236.829 251.064 238.122 249.72 239.929 246.983L240.011 246.862C241.795 244.154 244.289 240.234 247.49 235.098L249.35 232.105Z" fill="black"/>
<path d="M194.45 208.701C222.241 226.749 247.527 237.136 250.928 231.899C254.328 226.663 234.555 207.788 206.763 189.74C178.972 171.692 153.686 161.306 150.285 166.542C146.885 171.778 166.658 190.653 194.45 208.701Z" fill="#65CB9A"/>
<path fill-rule="evenodd" clip-rule="evenodd" d="M251.021 232.043C254.422 226.806 234.649 207.931 206.857 189.883C179.065 171.835 153.78 161.449 150.379 166.685C146.979 171.921 166.752 190.797 194.543 208.845C222.335 226.892 247.621 237.279 251.021 232.043ZM169.345 170.755C179.747 175.062 192.889 182.195 206.226 190.855L206.629 191.118C219.936 199.787 231.745 208.882 239.835 216.606L240.04 216.801C243.767 220.377 246.578 223.551 248.307 226.136L248.491 226.415C250.11 228.91 250.552 230.636 250.049 231.411C249.545 232.186 247.789 232.484 244.851 232.02C241.695 231.52 237.441 230.186 232.369 228.103L232.055 227.973C221.653 223.666 208.511 216.533 195.175 207.872L194.771 207.61C181.465 198.94 169.656 189.845 161.565 182.122L161.361 181.926C157.498 178.22 154.62 174.946 152.91 172.312C151.29 169.817 150.848 168.092 151.352 167.316C151.855 166.541 153.611 166.243 156.549 166.708C159.705 167.207 163.959 168.542 169.031 170.625L169.345 170.755Z" fill="black"/>
<path fill-rule="evenodd" clip-rule="evenodd" d="M159.889 165.244C159.889 165.244 182.076 109.001 210.035 76.4754C237.994 43.9494 305.455 30.5112 305.455 30.5112C305.455 30.5112 334.563 87.4956 308.452 137.923C282.342 188.35 247.702 222.429 247.702 222.429C247.702 222.429 233.346 228.75 194.712 203.869C156.077 178.988 159.889 165.244 159.889 165.244Z" fill="#ABF0CF"/>
<path fill-rule="evenodd" clip-rule="evenodd" d="M305.864 30L306.064 30.3904C325.551 68.5412 326.557 104.542 309.061 138.333C291.626 172.003 271.342 200.221 248.202 222.985L248.126 223.06L248.029 223.103C238.211 227.426 220.409 221.19 194.491 204.499C168.516 187.771 156.782 174.756 159.424 165.232L159.443 165.174C174.256 127.623 191.003 97.9784 209.689 76.2404C228.426 54.4436 260.344 39.0677 305.435 30.0858L305.864 30ZM305.229 31.3093L304.319 31.4928C260.17 40.4645 228.925 55.641 210.568 76.9964C191.975 98.6263 175.291 128.161 160.522 165.6L160.534 165.569L160.472 165.807C158.353 174.509 169.607 186.988 194.357 203.032L195.119 203.525C220.714 220.008 238.239 226.146 247.562 222.042L247.466 222.082L248.079 221.477C270.611 199.149 290.423 171.593 307.507 138.805L308.032 137.8C325.348 104.354 324.354 68.7464 305.032 30.918L305.229 31.3093Z" fill="black"/>
<path fill-rule="evenodd" clip-rule="evenodd" d="M200.606 88.3486C200.606 88.3486 215.93 64.6738 246.271 48.5854C276.611 32.4971 305.455 30.5112 305.455 30.5112C305.455 30.5112 323.209 66.1341 320.797 95.8383C318.389 125.543 302.736 148.658 302.736 148.658C302.736 148.658 272.649 135.605 250.927 122.967C229.205 110.329 200.606 88.3486 200.606 88.3486Z" fill="#0089FF"/>
<path fill-rule="evenodd" clip-rule="evenodd" d="M305.893 30.0493L306.067 30.3957C317.945 54.2329 323.085 76.1112 321.47 96.0283C319.856 115.929 313.8 133.631 303.307 149.126L303.038 149.524L301.977 149.063C282.165 140.446 265.081 131.962 250.729 123.611L250.293 123.357C236.179 115.11 219.911 103.934 201.488 89.8276L199.922 88.6256L200.213 88.1769C210.486 72.3059 225.782 58.9863 246.093 48.2166C266.391 37.4544 286.194 31.4059 305.507 30.076L305.893 30.0493ZM305.2 31.2601L305.012 31.2737C286.052 32.6711 266.594 38.6587 246.636 49.2406C226.895 59.7086 211.954 72.5847 201.802 87.8682L201.478 88.3586L202.738 89.3238C220.901 103.206 236.948 114.217 250.878 122.356L251.312 122.609C265.324 130.762 281.956 139.047 301.209 147.463L302.618 148.077L302.96 147.563C312.861 132.61 318.629 115.6 320.264 96.5251L320.313 95.9347C321.911 76.246 316.821 54.5729 305.029 30.9128L305.2 31.2601Z" fill="black"/>
<path d="M195.236 174.48C208.573 181.276 225.6 174.585 233.267 159.537C240.935 144.489 236.339 126.781 223.002 119.986C209.666 113.191 192.639 119.881 184.971 134.929C177.304 149.977 181.9 167.685 195.236 174.48Z" fill="#204EB2"/>
<path fill-rule="evenodd" clip-rule="evenodd" d="M233.361 159.681C241.029 144.632 236.433 126.925 223.096 120.129C209.76 113.334 192.733 120.024 185.065 135.072C177.398 150.121 181.994 167.828 195.33 174.624C208.667 181.419 225.694 174.729 233.361 159.681ZM186.098 135.599C193.488 121.095 209.834 114.673 222.57 121.162C235.306 127.652 239.718 144.65 232.328 159.154C224.938 173.658 208.593 180.08 195.856 173.591C183.12 167.101 178.708 150.102 186.098 135.599Z" fill="black"/>
<path d="M200.2 163.017C207.605 166.79 217.083 163.029 221.369 154.617C225.655 146.204 223.127 136.326 215.722 132.553C208.318 128.78 198.84 132.541 194.554 140.954C190.267 149.366 192.795 159.244 200.2 163.017Z" fill="white"/>
<path fill-rule="evenodd" clip-rule="evenodd" d="M221.597 154.496C225.958 145.938 223.364 135.878 215.805 132.026C208.245 128.174 198.581 131.989 194.221 140.547C189.86 149.106 192.454 159.166 200.013 163.018C207.573 166.87 217.237 163.054 221.597 154.496ZM195.254 141.074C199.337 133.059 208.32 129.513 215.278 133.059C222.237 136.604 224.648 145.956 220.564 153.97C216.481 161.984 207.498 165.53 200.54 161.985C193.581 158.439 191.171 149.088 195.254 141.074Z" fill="black"/>
</svg>
