<svg width="428" height="346" viewBox="0 0 428 346" fill="none" xmlns="http://www.w3.org/2000/svg">
<path fill-rule="evenodd" clip-rule="evenodd" d="M246.977 108.065C246.977 108.065 302.985 101.059 324.297 151.27C345.612 201.48 324.734 234.702 303.088 255.474C281.442 276.245 250.39 293.674 222.137 296.002C193.884 298.332 186.865 212.907 186.865 212.907L246.977 108.065Z" fill="#FFA891"/>
<path d="M207.994 37.256L116.146 76.243C105.404 80.8027 100.392 93.2071 104.952 103.949L185.793 294.398C190.352 305.14 202.757 310.151 213.499 305.592L305.346 266.605C316.088 262.045 321.1 249.641 316.54 238.899L235.7 48.45C231.14 37.708 218.736 32.6963 207.994 37.256Z" fill="#87D5FF"/>
<path fill-rule="evenodd" clip-rule="evenodd" d="M115.917 75.7027L207.765 36.7159C218.805 32.0295 231.554 37.1805 236.241 48.2208L317.081 238.669C321.767 249.71 316.617 262.458 305.577 267.145L213.729 306.132C202.688 310.819 189.939 305.668 185.253 294.628L104.412 104.179C99.7258 93.1383 104.877 80.3891 115.917 75.7027ZM208.223 37.7964L116.376 76.7832C105.932 81.2164 101.06 93.2762 105.493 103.72L186.334 294.167C190.766 304.612 202.826 309.483 213.27 305.052L305.119 266.065C315.56 261.63 320.435 249.572 316.001 239.127L235.16 48.6795C230.727 38.2358 218.667 33.3633 208.223 37.7964Z" fill="black"/>
<path d="M215.69 40.3659L123.843 79.3528C113.101 83.9125 108.089 96.317 112.649 107.059L193.49 297.508C198.049 308.25 210.454 313.261 221.196 308.702L313.043 269.715C323.785 265.155 328.797 252.75 324.237 242.008L243.397 51.5599C238.837 40.8179 226.432 35.8062 215.69 40.3659Z" fill="#87D5FF"/>
<path fill-rule="evenodd" clip-rule="evenodd" d="M123.614 78.8123L215.462 39.8253C226.502 35.1389 239.251 40.2898 243.937 51.3304L324.778 241.78C329.465 252.82 324.315 265.569 313.274 270.255L221.425 309.243C210.385 313.927 197.636 308.776 192.95 297.736L112.109 107.288C107.423 96.2477 112.574 83.4988 123.614 78.8123ZM215.92 40.9058L124.073 79.8929C113.629 84.326 108.756 96.3859 113.19 106.829L194.03 297.278C198.463 307.723 210.523 312.594 220.967 308.16L312.814 269.173C323.258 264.741 328.13 252.683 323.698 242.238L242.857 51.7888C238.423 41.3454 226.364 36.473 215.92 40.9058Z" fill="black"/>
<path d="M218.435 49.0839L128.478 87.2682C121.764 90.118 118.632 97.8708 121.482 104.585L201.061 292.062C203.911 298.775 211.664 301.908 218.377 299.058L308.334 260.874C315.048 258.024 318.18 250.271 315.33 243.557L235.751 56.0801C232.901 49.3664 225.148 46.2341 218.435 49.0839Z" fill="#F6FCFF"/>
<path fill-rule="evenodd" clip-rule="evenodd" d="M128.248 86.7278L218.205 48.5433C225.217 45.567 233.314 48.8386 236.291 55.8504L315.869 243.326C318.847 250.34 315.575 258.437 308.564 261.413L218.606 299.599C211.594 302.575 203.497 299.303 200.52 292.292L120.941 104.814C117.964 97.8016 121.236 89.7042 128.248 86.7278ZM218.663 49.6239L128.707 87.8083C122.291 90.5314 119.298 97.9395 122.022 104.355L201.601 291.831C204.324 298.246 211.732 301.24 218.147 298.516L308.103 260.333C314.519 257.61 317.512 250.202 314.789 243.787L235.21 56.3091C232.487 49.8939 225.079 46.9008 218.663 49.6239Z" fill="black"/>
<path fill-rule="evenodd" clip-rule="evenodd" d="M214.069 119.163C218.843 117.137 224.356 119.364 226.383 124.138L232.575 138.726C232.826 139.317 233.011 139.919 233.135 140.525L244.867 143.852L222.649 153.283L222.749 153.099L172.761 174.317C167.987 176.344 162.474 174.116 160.448 169.342L154.255 154.754C152.229 149.98 154.456 144.467 159.231 142.441L214.069 119.163Z" fill="#ABF0CF"/>
<path fill-rule="evenodd" clip-rule="evenodd" d="M154.255 154.754C152.229 149.98 154.456 144.467 159.231 142.441L214.069 119.163C218.843 117.137 224.356 119.364 226.383 124.138L232.575 138.726C232.826 139.317 233.011 139.919 233.135 140.525L244.867 143.852L222.649 153.283L222.75 153.098L172.761 174.317C167.987 176.344 162.474 174.116 160.448 169.342L154.255 154.754ZM214.527 120.244L159.689 143.521L159.565 143.575C155.473 145.391 153.58 150.16 155.336 154.296L161.528 168.883L161.582 169.008C163.398 173.099 168.167 174.992 172.303 173.236L225.391 150.702L225.291 150.886L241.344 144.072L232.128 141.459L231.985 140.76L231.941 140.559C231.834 140.092 231.685 139.633 231.494 139.184L225.302 124.597L225.248 124.472C223.432 120.381 218.663 118.488 214.527 120.244Z" fill="black"/>
<path fill-rule="evenodd" clip-rule="evenodd" d="M255.569 208.669C260.341 206.642 265.856 208.87 267.883 213.644L274.076 228.231C274.325 228.823 274.51 229.425 274.633 230.03L286.366 233.358L264.148 242.79L264.25 242.605L214.261 263.823C209.487 265.85 203.973 263.623 201.947 258.848L195.755 244.26C193.728 239.485 195.956 233.973 200.73 231.946L255.569 208.669Z" fill="#ABF0CF"/>
<path fill-rule="evenodd" clip-rule="evenodd" d="M195.755 244.26C193.728 239.485 195.956 233.973 200.73 231.946L255.569 208.669C260.341 206.642 265.856 208.87 267.883 213.644L274.076 228.231C274.325 228.823 274.51 229.425 274.633 230.03L286.366 233.358L264.148 242.79L264.25 242.605L214.261 263.823C209.487 265.85 203.973 263.623 201.947 258.848L195.755 244.26ZM256.027 209.749L201.189 233.027L201.064 233.081C196.973 234.896 195.08 239.667 196.835 243.802L203.028 258.39L203.082 258.514C204.897 262.605 209.666 264.498 213.802 262.743L266.892 240.207L266.789 240.392L282.842 233.578L273.627 230.965L273.486 230.265L273.442 230.065C273.333 229.598 273.183 229.139 272.993 228.69L266.801 214.103L266.748 213.978C264.931 209.886 260.162 207.994 256.027 209.749Z" fill="black"/>
<path fill-rule="evenodd" clip-rule="evenodd" d="M185.287 280.066C185.287 280.066 167.468 283.96 157.711 273.712C147.954 263.467 149.374 248.544 149.374 248.544C149.374 248.544 135.777 245.263 128.528 234.706C121.279 224.148 126.503 211.027 126.503 211.027C126.503 211.027 115.227 207.624 110.184 199.125C105.142 190.625 103.729 174.115 113.399 167.819C123.069 161.522 148.953 146.987 159.376 161.575C169.8 176.163 162.136 189.877 162.136 189.877C162.136 189.877 174.852 193.676 178.701 204.921C182.549 216.166 177.631 223.124 177.631 223.124C177.631 223.124 194.143 222.907 199.501 234.337C204.86 245.768 206.276 251.491 197.497 260.838C188.718 270.185 185.287 280.066 185.287 280.066Z" fill="#FFA891"/>
<path fill-rule="evenodd" clip-rule="evenodd" d="M105.693 182.632C105.947 175.885 108.413 170.376 113.083 167.335C120.33 162.616 128.385 158.496 135.947 156.31C146.65 153.215 154.994 154.434 159.859 161.242C166.723 170.848 167.816 180.241 163.106 189.329L162.998 189.536L163.079 189.562C171.215 192.192 176.598 197.183 179.181 204.509L179.261 204.739C181.699 211.864 181.552 217.778 178.784 222.44L178.721 222.544L178.957 222.547C189.335 222.711 196.357 226.482 199.926 233.862L200.037 234.097C203.168 240.774 204.408 244.507 204.395 248.155L204.392 248.389C204.315 252.633 202.358 256.533 197.93 261.249L197.679 261.516C192.015 267.606 188.072 273.857 185.846 280.266L185.738 280.577L185.417 280.647C173.351 283.286 163.949 281.12 157.291 274.127C150.799 267.309 147.947 258.954 148.741 249.102L148.749 249.003L148.426 248.92C139.712 246.646 132.96 242.091 128.197 235.261L128.049 235.047C123.25 228.058 122.455 220.228 125.654 211.619L125.733 211.409L125.62 211.373C118.416 209.056 113.132 205.135 109.794 199.615L109.684 199.432C107.024 194.949 105.47 188.551 105.693 182.632ZM158.904 161.925C154.392 155.61 146.551 154.466 136.273 157.437C128.843 159.586 120.882 163.658 113.724 168.319C109.413 171.126 107.107 176.279 106.866 182.676C106.651 188.374 108.151 194.548 110.694 198.833C113.977 204.367 119.294 208.245 126.677 210.473L127.29 210.658L127.053 211.253C123.641 219.824 124.298 227.51 129.017 234.383C133.766 241.299 140.59 245.83 149.516 247.984L150.011 248.102L149.962 248.609C149.032 258.391 151.756 266.611 158.141 273.317C164.365 279.855 173.116 281.971 184.468 279.65L184.847 279.57L184.94 279.312C187.255 272.938 191.218 266.737 196.822 260.715L197.074 260.445C201.319 255.926 203.147 252.281 203.218 248.366C203.279 245.023 202.196 241.563 199.359 235.421L198.974 234.595C195.509 227.203 188.437 223.578 177.643 223.72L176.491 223.735L177.156 222.794C180.314 218.326 180.659 212.452 178.15 205.119C175.648 197.808 170.274 192.928 161.972 190.448L161.271 190.238L161.628 189.599C166.622 180.664 165.726 171.473 158.904 161.925Z" fill="black"/>
<path fill-rule="evenodd" clip-rule="evenodd" d="M283.957 161.593C283.957 161.593 269.098 149.241 253.228 130.342C237.359 111.444 259.886 88.4251 280.409 103.596C300.931 118.767 307.041 121.881 312.717 138.354C318.395 154.827 302.322 174.607 302.322 174.607L283.957 161.593Z" fill="#FFA891"/>
<path fill-rule="evenodd" clip-rule="evenodd" d="M134.436 165.147C134.436 165.147 139.116 173.317 141.081 177.947C143.046 182.576 145.682 191.639 145.682 191.639C145.682 191.639 166.35 184.931 159.961 169.881C153.573 154.831 134.436 165.147 134.436 165.147Z" fill="#FFD4C8"/>
<path fill-rule="evenodd" clip-rule="evenodd" d="M133.632 164.925L134.162 164.639C147.194 157.613 156.093 159.264 160.506 169.659C164.918 180.054 159.941 187.638 145.867 192.206L145.292 192.393L144.954 191.233C143.329 185.689 141.901 181.438 140.671 178.485L140.545 178.184C139.288 175.222 137.182 171.148 134.23 165.969L133.632 164.925ZM146.303 190.824C159.035 186.48 163.361 179.737 159.546 170.407L159.425 170.118C155.402 160.641 147.526 159.005 135.463 165.278L135.25 165.389L135.547 165.911C138.217 170.619 140.176 174.4 141.425 177.26L141.561 177.574L141.69 177.877C142.889 180.731 144.267 184.785 145.827 190.046L146.079 190.899L146.303 190.824Z" fill="black"/>
<path fill-rule="evenodd" clip-rule="evenodd" d="M149.062 199.603C149.062 199.603 153.741 207.772 155.706 212.402C157.671 217.032 160.307 226.095 160.307 226.095C160.307 226.095 180.975 219.386 174.586 204.336C168.198 189.286 149.062 199.603 149.062 199.603Z" fill="#FFD4C8"/>
<path fill-rule="evenodd" clip-rule="evenodd" d="M148.257 199.379L148.787 199.093C161.819 192.068 170.718 193.718 175.131 204.114C179.543 214.509 174.566 222.092 160.492 226.661L159.917 226.847L159.663 225.976C158.003 220.291 156.547 215.944 155.296 212.939L155.17 212.639C153.913 209.676 151.807 205.602 148.855 200.423L148.257 199.379ZM160.928 225.278C173.661 220.934 177.986 214.191 174.171 204.862L174.05 204.573C170.027 195.095 162.151 193.46 150.088 199.733L149.876 199.844L150.172 200.366C152.842 205.074 154.801 208.855 156.05 211.714L156.186 212.028L156.315 212.332C157.514 215.185 158.893 219.24 160.453 224.501L160.704 225.354L160.928 225.278Z" fill="black"/>
<path fill-rule="evenodd" clip-rule="evenodd" d="M170.929 235.866C170.929 235.866 176.569 243.406 179.083 247.761C181.598 252.116 185.319 260.791 185.319 260.791C185.319 260.791 205.015 251.615 196.84 237.454C188.665 223.294 170.929 235.866 170.929 235.866Z" fill="#FFD4C8"/>
<path fill-rule="evenodd" clip-rule="evenodd" d="M170.1 235.74L170.591 235.392C182.669 226.83 191.703 227.384 197.35 237.164C202.996 246.942 198.98 255.077 185.568 261.328L185.02 261.583L184.662 260.747C182.322 255.309 180.346 251.171 178.739 248.342L178.577 248.057C176.968 245.272 174.381 241.484 170.82 236.703L170.1 235.74ZM185.833 259.902C197.94 254.038 201.412 246.819 196.488 238.024L196.334 237.751C191.185 228.835 183.168 228.172 171.96 235.868L171.763 236.004L172.121 236.486C175.345 240.832 177.75 244.348 179.338 247.033L179.511 247.33L179.676 247.614C181.214 250.3 183.076 254.156 185.266 259.189L185.619 260.005L185.833 259.902Z" fill="black"/>
<path d="M260.808 98.8273C267.079 96.1653 276.115 99.5596 287.079 107.38C294.407 112.606 301.213 118.705 308.08 125.542C312.194 129.639 318.46 139.144 323.446 149.365C329.753 162.292 333.656 175.261 334.02 186.646C334.551 203.215 330.254 218.596 321.133 232.772L320.855 233.201L319.871 232.56C329.051 218.466 333.374 203.179 332.846 186.684C332.488 175.487 328.632 162.67 322.392 149.88L322.093 149.274C317.21 139.393 311.179 130.286 307.249 126.374C300.426 119.579 293.662 113.516 286.398 108.336C275.751 100.741 267.026 97.4636 261.269 99.9082C248.104 105.496 244.42 119.114 253.395 129.636L253.979 130.309C255.872 132.494 261.929 139.688 263.798 141.827L264.426 142.543C268.808 147.521 272.828 151.666 277.09 155.466C284.596 162.158 292.338 167.26 300.687 170.653L301.051 170.799L300.617 171.889C291.989 168.443 284.018 163.217 276.309 156.343C272.007 152.508 267.957 148.33 263.546 143.32L262.721 142.378C260.517 139.838 254.149 132.271 252.79 130.731C242.922 119.551 246.792 104.777 260.808 98.8273Z" fill="black"/>
<path d="M178.638 222.716L179.096 223.796C164.45 230.014 154.734 238.1 149.92 248.045L149.776 248.348L148.714 247.846C153.565 237.577 163.399 229.268 178.188 222.908L178.638 222.716Z" fill="black"/>
<path d="M126.03 210.688C133.334 201.165 145.28 193.921 161.852 188.943L162.356 188.792L162.689 189.918C146.24 194.787 134.409 201.859 127.18 211.121L126.962 211.402L126.03 210.688Z" fill="black"/>
<path fill-rule="evenodd" clip-rule="evenodd" d="M162.586 87.4555C157.811 89.4822 155.584 94.9953 157.611 99.7694L163.803 114.357C164.053 114.948 164.358 115.5 164.708 116.01L158.95 126.761L181.169 117.329L180.967 117.273L230.955 96.0547C235.729 94.028 237.957 88.5149 235.93 83.7407L229.738 69.1533C227.711 64.3791 222.198 62.1517 217.424 64.1781L162.586 87.4555Z" fill="#0089FF"/>
<path fill-rule="evenodd" clip-rule="evenodd" d="M229.738 69.1533C227.711 64.3791 222.198 62.1517 217.424 64.1781L162.586 87.4555C157.811 89.4822 155.584 94.9953 157.611 99.7694L163.803 114.357C164.053 114.948 164.358 115.5 164.707 116.009L158.95 126.761L181.169 117.329L180.967 117.273L230.955 96.0547C235.729 94.028 237.957 88.5149 235.93 83.7407L229.738 69.1533ZM163.045 88.536L217.883 65.2586L218.008 65.2067C222.156 63.5245 226.902 65.4761 228.657 69.612L234.849 84.1994L234.902 84.325C236.583 88.4729 234.632 93.2186 230.496 94.9741L177.407 117.509L177.61 117.565L161.557 124.379L166.079 115.934L165.675 115.345L165.562 115.175C165.3 114.773 165.074 114.347 164.883 113.898L158.691 99.3107L158.639 99.1852C156.957 95.0373 158.909 90.2916 163.045 88.536Z" fill="black"/>
<path fill-rule="evenodd" clip-rule="evenodd" d="M201.114 178.222C196.34 180.249 194.112 185.762 196.139 190.536L202.331 205.124C202.581 205.715 202.886 206.266 203.236 206.776L197.478 217.527L219.697 208.096L219.495 208.04L269.483 186.821C274.258 184.795 276.485 179.282 274.457 174.508L268.265 159.92C266.24 155.146 260.726 152.918 255.951 154.945L201.114 178.222Z" fill="#0089FF"/>
<path fill-rule="evenodd" clip-rule="evenodd" d="M268.265 159.92C266.24 155.146 260.726 152.918 255.951 154.945L201.114 178.222C196.34 180.249 194.112 185.762 196.139 190.536L202.331 205.124C202.581 205.714 202.886 206.266 203.236 206.776L197.478 217.527L219.697 208.096L219.495 208.04L269.483 186.821C274.258 184.795 276.485 179.282 274.457 174.508L268.265 159.92ZM201.573 179.303L256.412 156.025L256.535 155.973C260.685 154.291 265.43 156.243 267.185 160.378L273.377 174.966L273.43 175.092C275.112 179.24 273.16 183.985 269.025 185.741L215.936 208.276L216.138 208.331L200.086 215.145L204.607 206.701L204.203 206.112L204.09 205.942C203.828 205.54 203.602 205.113 203.411 204.665L197.219 190.078L197.167 189.952C195.485 185.804 197.437 181.058 201.573 179.303Z" fill="black"/>
<path d="M297.201 243.284L213.458 278.83C210.399 280.129 208.972 283.661 210.27 286.719C211.569 289.777 215.1 291.204 218.159 289.906L301.902 254.359C304.961 253.061 306.388 249.529 305.089 246.471C303.791 243.412 300.259 241.985 297.201 243.284Z" fill="#D1EFFF"/>
<path fill-rule="evenodd" clip-rule="evenodd" d="M305.089 246.47C303.792 243.412 300.259 241.985 297.201 243.282L213.458 278.83C210.399 280.128 208.972 283.658 210.27 286.719C211.569 289.777 215.101 291.203 218.159 289.906L301.902 254.358C304.96 253.061 306.387 249.528 305.089 246.47ZM213.917 279.91L297.659 244.362L297.747 244.327C300.189 243.344 302.977 244.495 304.01 246.927C305.054 249.39 303.907 252.233 301.445 253.278L217.701 288.823L217.613 288.861C215.172 289.841 212.384 288.691 211.351 286.258C210.306 283.796 211.455 280.955 213.917 279.91Z" fill="black"/>
<path d="M217.864 76.124L218.323 77.2046L172.207 96.7796L171.749 95.699L217.864 76.124Z" fill="white"/>
<path d="M220.171 81.1846L220.63 82.2651L174.515 101.84L174.056 100.759L220.171 81.1846Z" fill="white"/>
<path d="M222.35 86.3169L222.808 87.3974L176.693 106.972L176.234 105.892L222.35 86.3169Z" fill="white"/>
<path d="M214.025 131.297L214.483 132.377L168.368 151.952L167.909 150.872L214.025 131.297Z" fill="white"/>
<path d="M216.332 136.357L216.791 137.438L170.676 157.013L170.217 155.932L216.332 136.357Z" fill="white"/>
<path d="M218.51 141.489L218.969 142.57L172.854 162.145L172.395 161.064L218.51 141.489Z" fill="white"/>
<path d="M256.638 167.089L257.095 168.169L210.979 187.744L210.521 186.664L256.638 167.089Z" fill="white"/>
<path d="M258.944 172.149L259.402 173.23L213.287 192.805L212.829 191.724L258.944 172.149Z" fill="white"/>
<path d="M261.122 177.282L261.58 178.362L215.465 197.937L215.007 196.856L261.122 177.282Z" fill="white"/>
<path d="M254.985 221.032L255.443 222.112L209.328 241.686L208.869 240.606L254.985 221.032Z" fill="white"/>
<path d="M257.292 226.092L257.75 227.173L211.635 246.749L211.177 245.666L257.292 226.092Z" fill="white"/>
<path d="M259.47 231.225L259.927 232.305L213.813 251.881L213.355 250.798L259.47 231.225Z" fill="white"/>
<path fill-rule="evenodd" clip-rule="evenodd" d="M291.672 110.679C291.672 110.679 286.818 120.972 273.374 117.604C259.93 114.237 257.75 111.855 257.75 111.855C257.75 111.855 259.167 106.539 260.685 103.878C262.202 101.218 265.668 97.9658 265.668 97.9658C265.668 97.9658 274.495 98.1469 281.163 102.763C287.833 107.38 291.672 110.679 291.672 110.679Z" fill="#FFD4C8"/>
<path fill-rule="evenodd" clip-rule="evenodd" d="M265.383 97.4814L265.621 97.4864C271.619 97.6091 276.896 99.2431 281.439 102.388C285.899 105.477 289.418 108.127 291.998 110.342L292.335 110.633L292.144 111.037C288.778 118.172 282.39 120.59 273.172 118.281C264.074 116.002 258.824 114.07 257.26 112.358L257.043 112.121L257.186 111.578C258.126 108.105 259.097 105.481 260.115 103.695C261.16 101.864 262.856 99.8497 265.21 97.6449L265.383 97.4814ZM266.128 98.675L265.838 98.6656L265.647 98.8452C263.563 100.84 262.061 102.653 261.134 104.276C260.194 105.923 259.276 108.388 258.381 111.662L258.349 111.782L258.404 111.831C260.039 113.213 264.846 114.952 272.705 116.952L273.456 117.142C281.902 119.258 287.625 117.253 290.797 111.117L290.888 110.938L290.774 110.842C288.435 108.87 285.359 106.555 281.553 103.898L280.773 103.353C276.558 100.435 271.681 98.876 266.128 98.675Z" fill="black"/>
</svg>
